<svg xmlns="http://www.w3.org/2000/svg" viewBox="0 0 32 32" width="32" height="32">
  <defs>
    <linearGradient id="vanGradient" x1="0%" y1="0%" x2="100%" y2="100%">
      <stop offset="0%" style="stop-color:#4A90E2;stop-opacity:1" />
      <stop offset="100%" style="stop-color:#357ABD;stop-opacity:1" />
    </linearGradient>
  </defs>
  
  <!-- Van body -->
  <rect x="4" y="12" width="20" height="10" rx="2" ry="2" fill="url(#vanGradient)" stroke="#2C5282" stroke-width="0.5"/>
  
  <!-- Van front -->
  <rect x="24" y="14" width="4" height="6" rx="1" ry="1" fill="url(#vanGradient)" stroke="#2C5282" stroke-width="0.5"/>
  
  <!-- Windows -->
  <rect x="6" y="14" width="4" height="3" rx="0.5" ry="0.5" fill="#87CEEB" stroke="#5A9FD4" stroke-width="0.3"/>
  <rect x="12" y="14" width="4" height="3" rx="0.5" ry="0.5" fill="#87CEEB" stroke="#5A9FD4" stroke-width="0.3"/>
  <rect x="18" y="14" width="4" height="3" rx="0.5" ry="0.5" fill="#87CEEB" stroke="#5A9FD4" stroke-width="0.3"/>
  <rect x="25" y="15.5" width="2" height="2" rx="0.3" ry="0.3" fill="#87CEEB" stroke="#5A9FD4" stroke-width="0.3"/>
  
  <!-- Wheels -->
  <circle cx="8" cy="24" r="2.5" fill="#2D3748" stroke="#1A202C" stroke-width="0.5"/>
  <circle cx="8" cy="24" r="1.5" fill="#4A5568"/>
  <circle cx="20" cy="24" r="2.5" fill="#2D3748" stroke="#1A202C" stroke-width="0.5"/>
  <circle cx="20" cy="24" r="1.5" fill="#4A5568"/>
  
  <!-- Door -->
  <rect x="14" y="17.5" width="1.5" height="4.5" rx="0.2" ry="0.2" fill="none" stroke="#2C5282" stroke-width="0.4"/>
  <circle cx="15.3" cy="19.5" r="0.3" fill="#2C5282"/>
  
  <!-- Roof details -->
  <rect x="6" y="11" width="16" height="1" rx="0.5" ry="0.5" fill="#357ABD"/>
  
  <!-- Headlight -->
  <circle cx="27.5" cy="16.5" r="0.8" fill="#FFF8DC" stroke="#E2E8F0" stroke-width="0.3"/>
</svg>
