<?xml version="1.0" encoding="UTF-8" standalone="no"?>
<svg xmlns="http://www.w3.org/2000/svg" viewBox="0 0 1000 600" width="1000" height="600">
  <path fill="#b3e5fc" d="M0,0h1000v600H0z"/>
  <path fill="#a5d6f1" d="M0,0c0,0,125.5,69.4,208.3,76.4c82.8,7,208.3-38.2,291.7-25.5c83.3,12.7,166.7,76.4,250,76.4c83.3,0,166.7-38.2,250-38.2V0H0z"/>
  <path fill="#fff" d="M208.3,76.4c0,0,41.7,25.5,83.3,25.5c41.7,0,83.3-12.7,125-12.7c41.7,0,83.3,12.7,125,12.7c41.7,0,83.3-12.7,125-12.7"/>
  <path fill="#fff" d="M666.7,127.3c0,0,41.7,12.7,83.3,12.7c41.7,0,83.3-12.7,125-12.7c41.7,0,83.3,12.7,125,12.7"/>
  <path fill="#4db6ac" d="M0,600c0,0,41.7-76.4,83.3-76.4c41.7,0,83.3,38.2,125,38.2c41.7,0,83.3-38.2,125-38.2c41.7,0,83.3,38.2,125,38.2c41.7,0,83.3-38.2,125-38.2c41.7,0,83.3,38.2,125,38.2c41.7,0,83.3-38.2,125-38.2c41.7,0,83.3,38.2,125,38.2c41.7,0,83.3-38.2,125-38.2c41.7,0,83.3,38.2,125,38.2V600H0z"/>
  <path fill="#80cbc4" d="M0,600c0,0,41.7-127.3,83.3-127.3c41.7,0,83.3,63.7,125,63.7c41.7,0,83.3-63.7,125-63.7c41.7,0,83.3,63.7,125,63.7c41.7,0,83.3-63.7,125-63.7c41.7,0,83.3,63.7,125,63.7c41.7,0,83.3-63.7,125-63.7c41.7,0,83.3,63.7,125,63.7c41.7,0,83.3-63.7,125-63.7c41.7,0,83.3,63.7,125,63.7V600H0z"/>
  <path fill="#26a69a" d="M0,600c0,0,41.7-178.2,83.3-178.2c41.7,0,83.3,89.1,125,89.1c41.7,0,83.3-89.1,125-89.1c41.7,0,83.3,89.1,125,89.1c41.7,0,83.3-89.1,125-89.1c41.7,0,83.3,89.1,125,89.1c41.7,0,83.3-89.1,125-89.1c41.7,0,83.3,89.1,125,89.1c41.7,0,83.3-89.1,125-89.1c41.7,0,83.3,89.1,125,89.1V600H0z"/>
  <path fill="#90caf9" d="M0,600c0,0,41.7-229.1,83.3-229.1c41.7,0,83.3,114.6,125,114.6c41.7,0,83.3-114.6,125-114.6c41.7,0,83.3,114.6,125,114.6c41.7,0,83.3-114.6,125-114.6c41.7,0,83.3,114.6,125,114.6c41.7,0,83.3-114.6,125-114.6c41.7,0,83.3,114.6,125,114.6c41.7,0,83.3-114.6,125-114.6c41.7,0,83.3,114.6,125,114.6V600H0z"/>
  <path fill="#64b5f6" d="M0,600c0,0,41.7-280,83.3-280c41.7,0,83.3,140,125,140c41.7,0,83.3-140,125-140c41.7,0,83.3,140,125,140c41.7,0,83.3-140,125-140c41.7,0,83.3,140,125,140c41.7,0,83.3-140,125-140c41.7,0,83.3,140,125,140c41.7,0,83.3-140,125-140c41.7,0,83.3,140,125,140V600H0z"/>
  <path fill="#42a5f5" d="M0,600c0,0,41.7-331,83.3-331c41.7,0,83.3,165.5,125,165.5c41.7,0,83.3-165.5,125-165.5c41.7,0,83.3,165.5,125,165.5c41.7,0,83.3-165.5,125-165.5c41.7,0,83.3,165.5,125,165.5c41.7,0,83.3-165.5,125-165.5c41.7,0,83.3,165.5,125,165.5c41.7,0,83.3-165.5,125-165.5c41.7,0,83.3,165.5,125,165.5V600H0z"/>
  <path fill="#2196f3" d="M0,600c0,0,41.7-382,83.3-382c41.7,0,83.3,191,125,191c41.7,0,83.3-191,125-191c41.7,0,83.3,191,125,191c41.7,0,83.3-191,125-191c41.7,0,83.3,191,125,191c41.7,0,83.3-191,125-191c41.7,0,83.3,191,125,191c41.7,0,83.3-191,125-191c41.7,0,83.3,191,125,191V600H0z"/>
  <path fill="#1e88e5" d="M0,600c0,0,41.7-433,83.3-433c41.7,0,83.3,216.5,125,216.5c41.7,0,83.3-216.5,125-216.5c41.7,0,83.3,216.5,125,216.5c41.7,0,83.3-216.5,125-216.5c41.7,0,83.3,216.5,125,216.5c41.7,0,83.3-216.5,125-216.5c41.7,0,83.3,216.5,125,216.5c41.7,0,83.3-216.5,125-216.5c41.7,0,83.3,216.5,125,216.5V600H0z"/>
  <path fill="#1976d2" d="M0,600c0,0,41.7-484,83.3-484c41.7,0,83.3,242,125,242c41.7,0,83.3-242,125-242c41.7,0,83.3,242,125,242c41.7,0,83.3-242,125-242c41.7,0,83.3,242,125,242c41.7,0,83.3-242,125-242c41.7,0,83.3,242,125,242c41.7,0,83.3-242,125-242c41.7,0,83.3,242,125,242V600H0z"/>
  <path fill="#1565c0" d="M0,600c0,0,41.7-535,83.3-535c41.7,0,83.3,267.5,125,267.5c41.7,0,83.3-267.5,125-267.5c41.7,0,83.3,267.5,125,267.5c41.7,0,83.3-267.5,125-267.5c41.7,0,83.3,267.5,125,267.5c41.7,0,83.3-267.5,125-267.5c41.7,0,83.3,267.5,125,267.5c41.7,0,83.3-267.5,125-267.5c41.7,0,83.3,267.5,125,267.5V600H0z"/>
  <path fill="#0d47a1" d="M0,600c0,0,41.7-586,83.3-586c41.7,0,83.3,293,125,293c41.7,0,83.3-293,125-293c41.7,0,83.3,293,125,293c41.7,0,83.3-293,125-293c41.7,0,83.3,293,125,293c41.7,0,83.3-293,125-293c41.7,0,83.3,293,125,293c41.7,0,83.3-293,125-293c41.7,0,83.3,293,125,293V600H0z"/>
  
  <!-- Camper Van -->
  <g transform="translate(250, 350) scale(1.2)">
    <!-- Van body -->
    <path fill="#ff7043" d="M50,100 L50,50 L300,50 L350,100 L400,100 L400,200 L50,200 Z" />
    
    <!-- Windows -->
    <rect x="75" y="75" width="50" height="50" fill="#0d47a1" />
    <rect x="150" y="75" width="100" height="50" fill="#0d47a1" />
    <path d="M300,75 L325,75 L350,100 L300,100 Z" fill="#0d47a1" />
    
    <!-- Wheels -->
    <circle cx="100" cy="200" r="30" fill="#263238" />
    <circle cx="100" cy="200" r="20" fill="#455a64" />
    <circle cx="100" cy="200" r="10" fill="#607d8b" />
    
    <circle cx="350" cy="200" r="30" fill="#263238" />
    <circle cx="350" cy="200" r="20" fill="#455a64" />
    <circle cx="350" cy="200" r="10" fill="#607d8b" />
    
    <!-- Lower trim -->
    <rect x="50" y="175" width="350" height="25" fill="#ffd54f" />
    
    <!-- Door handle -->
    <rect x="375" y="125" width="5" height="15" fill="#455a64" />
    
    <!-- Roof rack -->
    <rect x="75" y="40" width="250" height="10" fill="#263238" />
    <rect x="100" y="30" width="5" height="10" fill="#263238" />
    <rect x="200" y="30" width="5" height="10" fill="#263238" />
    <rect x="300" y="30" width="5" height="10" fill="#263238" />
    
    <!-- Bicycle on top -->
    <g transform="translate(175, 0) scale(0.6)">
      <!-- Frame -->
      <path d="M100,50 L150,50 L175,100 L125,100 Z" fill="#bf360c" />
      <line x1="100" y1="50" x2="125" y2="100" stroke="#bf360c" stroke-width="5" />
      <line x1="150" y1="50" x2="175" y2="100" stroke="#bf360c" stroke-width="5" />
      <line x1="125" y1="100" x2="175" y2="100" stroke="#bf360c" stroke-width="5" />
      
      <!-- Wheels -->
      <circle cx="125" cy="100" r="25" fill="#bbdefb" stroke="#1565c0" stroke-width="5" />
      <circle cx="125" cy="100" r="5" fill="#1565c0" />
      <circle cx="175" cy="100" r="25" fill="#bbdefb" stroke="#1565c0" stroke-width="5" />
      <circle cx="175" cy="100" r="5" fill="#1565c0" />
      
      <!-- Handlebars -->
      <path d="M100,50 L85,40" stroke="#bf360c" stroke-width="3" />
      <line x1="85" y1="40" x2="75" y2="50" stroke="#bf360c" stroke-width="3" />
      
      <!-- Seat -->
      <line x1="150" y1="50" x2="150" y2="35" stroke="#263238" stroke-width="3" />
      <ellipse cx="150" cy="30" rx="10" ry="5" fill="#263238" />
    </g>
  </g>
  
  <!-- Ground line -->
  <line x1="0" y1="550" x2="1000" y2="550" stroke="#b0bec5" stroke-width="2" />
</svg>
