<?xml version="1.0" encoding="UTF-8" standalone="no"?>
<svg xmlns="http://www.w3.org/2000/svg" viewBox="0 0 800 500" width="800" height="500">
  <!-- Camper Van -->
  <g transform="translate(150, 100) scale(1.5)">
    <!-- Van body -->
    <path fill="#ff7043" d="M50,100 L50,50 L300,50 L350,100 L400,100 L400,200 L50,200 Z" />
    
    <!-- Windows -->
    <rect x="75" y="75" width="50" height="50" fill="#0d47a1" />
    <rect x="150" y="75" width="100" height="50" fill="#0d47a1" />
    <path d="M300,75 L325,75 L350,100 L300,100 Z" fill="#0d47a1" />
    
    <!-- Wheels -->
    <circle cx="100" cy="200" r="30" fill="#263238" />
    <circle cx="100" cy="200" r="20" fill="#455a64" />
    <circle cx="100" cy="200" r="10" fill="#607d8b" />
    
    <circle cx="350" cy="200" r="30" fill="#263238" />
    <circle cx="350" cy="200" r="20" fill="#455a64" />
    <circle cx="350" cy="200" r="10" fill="#607d8b" />
    
    <!-- Lower trim -->
    <rect x="50" y="175" width="350" height="25" fill="#ffd54f" />
    
    <!-- Door handle -->
    <rect x="375" y="125" width="5" height="15" fill="#455a64" />
    
    <!-- Roof rack -->
    <rect x="75" y="40" width="250" height="10" fill="#263238" />
    <rect x="100" y="30" width="5" height="10" fill="#263238" />
    <rect x="200" y="30" width="5" height="10" fill="#263238" />
    <rect x="300" y="30" width="5" height="10" fill="#263238" />
    
    <!-- Bicycle on top -->
    <g transform="translate(175, 0) scale(0.6)">
      <!-- Frame -->
      <path d="M100,50 L150,50 L175,100 L125,100 Z" fill="#bf360c" />
      <line x1="100" y1="50" x2="125" y2="100" stroke="#bf360c" stroke-width="5" />
      <line x1="150" y1="50" x2="175" y2="100" stroke="#bf360c" stroke-width="5" />
      <line x1="125" y1="100" x2="175" y2="100" stroke="#bf360c" stroke-width="5" />
      
      <!-- Wheels -->
      <circle cx="125" cy="100" r="25" fill="#bbdefb" stroke="#1565c0" stroke-width="5" />
      <circle cx="125" cy="100" r="5" fill="#1565c0" />
      <circle cx="175" cy="100" r="25" fill="#bbdefb" stroke="#1565c0" stroke-width="5" />
      <circle cx="175" cy="100" r="5" fill="#1565c0" />
      
      <!-- Handlebars -->
      <path d="M100,50 L85,40" stroke="#bf360c" stroke-width="3" />
      <line x1="85" y1="40" x2="75" y2="50" stroke="#bf360c" stroke-width="3" />
      
      <!-- Seat -->
      <line x1="150" y1="50" x2="150" y2="35" stroke="#263238" stroke-width="3" />
      <ellipse cx="150" cy="30" rx="10" ry="5" fill="#263238" />
    </g>
  </g>
</svg>
